<svg xmlns="http://www.w3.org/2000/svg" xmlns:xlink="http://www.w3.org/1999/xlink" width="24" height="24" viewBox="0 0 24 24"><defs><clipPath id="a"><rect width="24" height="24" transform="translate(204 1033)" fill="#fff" stroke="#707070" stroke-width="1" opacity="0.5"/></clipPath></defs><g transform="translate(-204 -1033)" clip-path="url(#a)"><g transform="translate(209 1034)"><path d="M14.365,12.334l-7.182,2.66L0,12.334,7.182,0Zm0,0" fill="#9ca6d9"/><path d="M14.365,3.677,7.182,0,0,3.677,7.182,6.291Zm0,0" transform="translate(0 8.703)" fill="#7885cb"/><path d="M21.089,323.7l-6.869,8.037L7.352,323.7l6.869,2.544Zm0,0" transform="translate(-7.038 -309.883)" fill="#9ca6d9"/><path d="M168.281,326.243l6.869-2.544-6.869,8.037Zm0,0" transform="translate(-161.099 -309.883)" fill="#7885cb"/><path d="M175.463,12.334l-7.182,2.66V0Zm0,0" transform="translate(-161.099)" fill="#7885cb"/><path d="M175.463,3.677,168.281,0V6.291Zm0,0" transform="translate(-161.099 8.703)" fill="#5b6abf"/></g></g></svg>