<svg xmlns="http://www.w3.org/2000/svg" xmlns:xlink="http://www.w3.org/1999/xlink" width="590.368" height="152.536" viewBox="0 0 590.368 152.536">
  <defs>
    <radialGradient id="radial-gradient" cx="0.936" cy="0.283" r="0.949" gradientUnits="objectBoundingBox">
      <stop offset="0" stop-color="#ffcf14"/>
      <stop offset="0.519" stop-color="#ee8fff"/>
      <stop offset="1" stop-color="#38deff"/>
    </radialGradient>
  </defs>
  <path id="How_it_work" data-name="How it work" d="M6.08,0H41.116V-12.084H19.076v-9.044H36.708v-12.16H19.076v-8.968h22.04V-54.264H6.08Zm38.3,0h15.5l6.46-10.792L72.884,0H88.312L73.492-21.736,87.7-42.332H72.124l-5.776,9.88-5.776-9.88H44.992L59.2-21.736ZM94.62,0h18.62V-12.16h-5.624V-30.172h5.624v-12.16h-5.624V-54.264h-13v11.932H88.844v12.16H94.62Zm26.9,0H134.6V-30.172h12.388v-12.16h-25.46Zm47.8,1.14c5.776,0,10.184-1.6,14.06-7.22h.38V0H196.46V-42.332H183.768V-35.8h-.38c-2.356-4.484-7.524-7.676-14.06-7.676-11.7,0-20.064,9.88-20.064,22.344C149.264-8.74,157.624,1.14,169.328,1.14Zm3.04-12.16c-5.928,0-9.2-4.18-9.2-10.108,0-6,3.268-10.184,9.2-10.184,6,0,9.5,4.18,9.5,10.184C181.868-15.2,178.372-11.02,172.368-11.02ZM225.416,1.14a22.446,22.446,0,0,0,22.5-22.268,22.3,22.3,0,0,0-22.5-22.268,22.3,22.3,0,0,0-22.5,22.268A22.446,22.446,0,0,0,225.416,1.14Zm0-12.236c-5.244,0-9.424-3.5-9.424-10.032,0-6.764,4.18-10.032,9.424-10.032s9.5,3.268,9.5,10.032C234.916-14.592,230.66-11.1,225.416-11.1ZM254.3,0h13.072V-30.172h12.388v-12.16H254.3ZM301.34,1.14c5.7,0,10.868-1.6,14.744-7.22h.38V0h12.692V-54.264H316.084V-35.8h-.38c-2.356-4.484-7.9-7.676-14.364-7.676-11.02,0-19.3,9.88-19.3,22.344C282.036-8.74,290.32,1.14,301.34,1.14Zm3.8-12.16c-6,0-9.2-4.18-9.2-10.108,0-6,3.192-10.184,9.2-10.184,5.928,0,9.424,4.18,9.424,10.184C314.564-15.2,311.068-11.02,305.14-11.02Zm40.28-36.86a7.282,7.282,0,0,0,7.22-7.3,7.266,7.266,0,0,0-7.22-7.22,7.282,7.282,0,0,0-7.3,7.22A7.3,7.3,0,0,0,345.42-47.88ZM338.884-.152h13.072v-42.18H338.884Zm22.8.152H374.6V-30.172h13.3V0h12.92V-42.332h-39.14Zm65.664,1.14c5.776,0,10.184-1.6,14.06-7.22h.38V0H454.48V-42.332H441.788V-35.8h-.38c-2.356-4.484-7.524-7.676-14.06-7.676-11.7,0-20.064,9.88-20.064,22.344C407.284-8.74,415.644,1.14,427.348,1.14Zm3.04-12.16c-5.928,0-9.2-4.18-9.2-10.108,0-6,3.268-10.184,9.2-10.184,6,0,9.5,4.18,9.5,10.184C439.888-15.2,436.392-11.02,430.388-11.02ZM464.284,0h13.072V-30.172h12.388v-12.16h-25.46ZM497.42,12.084h14.212L535.42-42.332H521.284l-7.676,20.444-9.12-20.444H490.352l15.96,35.644ZM572.736,1.14c11.02,0,19.988-8.664,19.988-20.748h3.724v-9.956H576.08v9.956h3.648c0,5.472-3.04,8.512-6.992,8.512-4.18,0-7.372-2.584-7.372-7.144,0-5.092,3.344-8.132,7.372-8.132h.38V-38.38h-.38a2.43,2.43,0,0,1-2.128-2.508,2.473,2.473,0,0,1,2.584-2.356,2.5,2.5,0,0,1,2.508,2.356h12.084A14.548,14.548,0,0,0,573.116-55.4a14.6,14.6,0,0,0-14.668,14.516,10.385,10.385,0,0,0,2.736,7.22,16.648,16.648,0,0,0-8.816,14.744A20.113,20.113,0,0,0,572.736,1.14ZM6.08,89H41.116V76.916H19.076V67.872H36.708V55.712H19.076V46.744h22.04V34.736H6.08Zm38.3,0h15.5l6.46-10.792L72.884,89H88.312L73.492,67.264,87.7,46.668H72.124l-5.776,9.88-5.776-9.88H44.992L59.2,67.264Zm65.36.988a22.212,22.212,0,0,0,15.884-6.536l-8.436-8.512a9.96,9.96,0,0,1-7.448,2.812c-5.244,0-9.424-4.256-9.424-10.26,0-5.928,4.18-10.184,9.424-10.184a9.933,9.933,0,0,1,7.98,3.344l8.436-8.512a22.488,22.488,0,1,0-16.416,37.848ZM130.568,89h12.92V34.736h-12.92Zm40.28,1.14c11.02,0,18.62-7.676,18.62-17.86V46.668H176.4V73.116c0,2.736-1.52,4.864-5.548,4.864-3.648,0-5.624-1.748-5.624-4.864V46.668h-13V72.28C152.228,82.464,159.9,90.14,170.848,90.14Zm40.584,0c8.816,0,16.036-6.384,16.036-14.44,0-10.336-7.98-12.312-13.072-13.6-2.584-.684-5.244-1.064-5.244-2.888,0-1.216.988-1.9,2.66-1.9a2.364,2.364,0,0,1,2.66,2.432l13,.076c0-8.056-7.068-14.288-15.656-14.288-9.2,0-15.656,6.232-15.656,13.832,0,8.208,5.776,11.78,13.376,13.756,2.432.608,5.168.912,5.168,2.812,0,1.6-.836,2.28-2.964,2.28-1.672,0-3.344-.684-3.42-2.508h-13C195.32,83.832,202.54,90.14,211.432,90.14Zm29.944-49.02a7.258,7.258,0,1,0-7.3-7.3A7.282,7.282,0,0,0,241.376,41.12ZM234.84,88.848h13.072V46.668H234.84ZM266.076,89H280.06L294.5,46.668H280.668l-7.6,23.56-7.6-23.56H251.712Zm51.908,1.14c11.02,0,19.684-6.384,22.42-15.808H326.04c-1.368,2.812-4.332,3.648-7.9,3.648-5.016,0-9.044-1.6-9.728-5.928h32.68c.076-.836.152-2.432.152-3.344a22.953,22.953,0,0,0-23.256-23.18c-13.148,0-23.256,9.728-23.256,22.116C294.728,80.108,304.836,90.14,317.984,90.14Zm-9.12-26.828c.38-2.812,3.648-5.624,8.892-5.624s8.588,3.268,9.12,5.624ZM364.344,89h13V57h.3a21.015,21.015,0,0,0,2.28,4.256L397.1,89h13.68V34.736H397.86V67.8h-.228a58.765,58.765,0,0,0-2.812-5.244l-17.4-27.816H364.344Zm58.6,0h12.92V67.872h18.012V55.712H435.86V46.744h22.268V34.736H422.94Zm51.072,0h13V46.82h12.616V34.736h-38.3V46.82h12.692Zm41.724,1.14c8.816,0,16.036-6.384,16.036-14.44,0-10.336-7.98-12.312-13.072-13.6-2.584-.684-5.244-1.064-5.244-2.888,0-1.216.988-1.9,2.66-1.9a2.364,2.364,0,0,1,2.66,2.432l13,.076c0-8.056-7.068-14.288-15.656-14.288-9.2,0-15.656,6.232-15.656,13.832,0,8.208,5.776,11.78,13.376,13.756,2.432.608,5.168.912,5.168,2.812,0,1.6-.836,2.28-2.964,2.28-1.672,0-3.344-.684-3.42-2.508h-13C499.624,83.832,506.844,90.14,515.736,90.14Z" transform="translate(-6.08 62.396)" fill="url(#radial-gradient)"/>
</svg>
