<svg xmlns="http://www.w3.org/2000/svg" width="120.348" height="104.763" viewBox="0 0 120.348 104.763">
  <g id="Group_6450" data-name="Group 6450" transform="translate(-22.76 -11.018)">
    <path id="Path_6091" data-name="Path 6091" d="M84.976,112.977A46.774,46.774,0,1,0,38.2,66.2,46.812,46.812,0,0,0,84.976,112.977Z" fill="#eaeef9"/>
    <path id="Path_6092" data-name="Path 6092" d="M55.544,53.417h56.541a4.091,4.091,0,0,1,4.023,4.024V93.123a4.091,4.091,0,0,1-4.023,4.023H55.544a4.091,4.091,0,0,1-4.023-4.023V57.441A4.091,4.091,0,0,1,55.544,53.417Z" fill="#fff"/>
    <path id="Path_6093" data-name="Path 6093" d="M139.384,54.51a3.556,3.556,0,1,0-5.025-.193A3.617,3.617,0,0,0,139.384,54.51Z" fill="#eaeef9"/>
    <path id="Path_6094" data-name="Path 6094" d="M139.577,38.564a1.5,1.5,0,1,0-2.126-.1A1.438,1.438,0,0,0,139.577,38.564Z" fill="#eaeef9"/>
    <path id="Path_6095" data-name="Path 6095" d="M101.6,16.627a1.027,1.027,0,1,0-1.45-.1A1.056,1.056,0,0,0,101.6,16.627Z" fill="#eaeef9"/>
    <g id="Group_6444" data-name="Group 6444">
      <path id="Path_6096" data-name="Path 6096" d="M136.649,34.57,122.567,59.664a1.662,1.662,0,0,1-2.33.635L96.1,46.217a1.662,1.662,0,0,1-.635-2.329L113.99,11.912a1.662,1.662,0,0,1,2.33-.635l17.47,10.165Z" fill="#f2f6fa"/>
    </g>
    <path id="Path_6097" data-name="Path 6097" d="M133.79,21.441l-4.023,6.776a2.046,2.046,0,0,0,.741,2.753l6.035,3.494" fill="#d5dae6"/>
    <path id="Path_6098" data-name="Path 6098" d="M117.167,28.006a4.751,4.751,0,0,1,1.165-.106h1.27c.424.106.953.212,1.377.318.529.212.953.424,1.376.635a4.685,4.685,0,0,1,1.588,1.271,3.973,3.973,0,0,1,.953,1.588,4.658,4.658,0,0,1,.212,1.694,5.228,5.228,0,0,1-.635,1.8,6.829,6.829,0,0,1-1.059,1.376,5.006,5.006,0,0,1-1.271.741,2.818,2.818,0,0,1-1.27.318l-1.165.106a4.662,4.662,0,0,0-1.059.212,1.71,1.71,0,0,0-.741.424l-1.165,1.482-1.9-1.059.847-1.906a2.533,2.533,0,0,1,.635-.847,3.761,3.761,0,0,1,.953-.424c.423-.106.741-.106,1.165-.212a5.314,5.314,0,0,0,1.27-.212,5.163,5.163,0,0,0,1.165-.424,1.871,1.871,0,0,0,.847-.953,7.131,7.131,0,0,0,.317-.847,1.582,1.582,0,0,0-.105-.741,1.706,1.706,0,0,0-.424-.741,4.6,4.6,0,0,0-.741-.635,3.917,3.917,0,0,0-1.165-.529,2.928,2.928,0,0,0-.953-.106h-.741a.634.634,0,0,1-.423-.106.871.871,0,0,1-.424-.635Zm-5.4,13.976a2.826,2.826,0,0,1,.529-.635c.212-.106.424-.318.636-.318a1.8,1.8,0,0,1,1.482.212,2.784,2.784,0,0,1,.635.529l.318.635a1.855,1.855,0,0,1-1.376,2.329,2.331,2.331,0,0,1-1.483-.212,2.806,2.806,0,0,1-.635-.529c-.106-.212-.318-.424-.318-.635a.9.9,0,0,1,0-.741A1.5,1.5,0,0,1,111.767,41.982Z" fill="#ced6e2"/>
    <g id="Group_6445" data-name="Group 6445">
      <path id="Path_6099" data-name="Path 6099" d="M46.121,23.665,62.215,40.5a1.376,1.376,0,0,1-.106,2.012L45.7,58.076a1.377,1.377,0,0,1-2.012-.106L23.145,36.264a1.376,1.376,0,0,1,.106-2.012L35.215,23.029Z" fill="#f2f6fa"/>
    </g>
    <path id="Path_6100" data-name="Path 6100" d="M35.109,22.817l4.447,4.659a1.662,1.662,0,0,0,2.329,0l4.129-3.918" fill="#d5dae6"/>
    <path id="Path_6101" data-name="Path 6101" d="M36.38,37.323a3.092,3.092,0,0,1,.212-.953l.318-.953a4.291,4.291,0,0,1,.529-.953,6.849,6.849,0,0,1,.847-.953,4.029,4.029,0,0,1,1.376-.953,3.26,3.26,0,0,1,1.376-.318,6.2,6.2,0,0,1,1.377.212,8.83,8.83,0,0,1,1.27.847,2.74,2.74,0,0,1,.741,1.165c.106.318.212.741.318,1.165v1.059c-.106.318-.106.635-.212.953,0,.318-.106.529-.106.847a.778.778,0,0,0,.212.635l.847,1.271-1.271,1.165-1.271-1.165a1.9,1.9,0,0,1-.529-.741,2.331,2.331,0,0,1-.106-.847c0-.318.106-.635.106-.953a4.345,4.345,0,0,0,0-1.906,4.3,4.3,0,0,0-.529-.953,1.057,1.057,0,0,0-.529-.424,1.343,1.343,0,0,0-.635-.106,1.506,1.506,0,0,0-.635.212,2.215,2.215,0,0,0-.635.424c-.212.212-.424.529-.635.741a5.151,5.151,0,0,0-.318.741,1.151,1.151,0,0,0-.106.529c0,.106-.106.212-.212.318-.106.212-.424.212-.635.106Zm9.741,7.412a2.308,2.308,0,0,1-.318-.529,1.342,1.342,0,0,1-.106-.635,1.7,1.7,0,0,1,.529-1.165,2.314,2.314,0,0,1,.529-.318,1.343,1.343,0,0,1,.635-.106,1.592,1.592,0,0,1,1.482,1.059,1.343,1.343,0,0,1,.106.635c0,.212-.106.424-.106.635a1.857,1.857,0,0,1-.424.529.9.9,0,0,1-.529.318,2.165,2.165,0,0,1-1.165,0A.972.972,0,0,1,46.121,44.735Z" fill="#ced6e2"/>
    <g id="Group_6446" data-name="Group 6446">
      <path id="Path_6102" data-name="Path 6102" d="M88.156,50.135,81.909,72.476a1.39,1.39,0,0,1-1.8.953L58.4,67.076a1.39,1.39,0,0,1-.953-1.8l8.471-28.8a1.39,1.39,0,0,1,1.8-.953L83.5,40.182Z" fill="#f2f6fa"/>
    </g>
    <path id="Path_6103" data-name="Path 6103" d="M83.5,40.221l-2.014,6.314a1.69,1.69,0,0,0,1.165,2.012l5.584,1.578" fill="#d5dae6"/>
    <path id="Path_6104" data-name="Path 6104" d="M71.532,48.758l.953-.318a3.132,3.132,0,0,1,1.059-.212h1.165a5.313,5.313,0,0,1,1.271.212,3.911,3.911,0,0,1,1.482.741,5.023,5.023,0,0,1,1.059,1.059,6.478,6.478,0,0,1,.529,1.271,3.4,3.4,0,0,1-.106,1.482,3.577,3.577,0,0,1-.635,1.271,3.222,3.222,0,0,1-.847.847,4.3,4.3,0,0,1-.953.529l-.953.318c-.212.106-.529.212-.741.318a.7.7,0,0,0-.424.529l-.635,1.376-1.694-.741.318-1.694a1.072,1.072,0,0,1,.424-.741,1.9,1.9,0,0,1,.741-.529,7.313,7.313,0,0,0,.847-.318,3.761,3.761,0,0,0,.953-.424,3.714,3.714,0,0,0,.847-.529,2.047,2.047,0,0,0,.529-.953v-.529a1.5,1.5,0,0,0-.212-.635c-.106-.212-.318-.318-.529-.529a5.159,5.159,0,0,0-.741-.318,3.267,3.267,0,0,0-1.059-.106,1.8,1.8,0,0,0-.741.106,4.584,4.584,0,0,0-.529.106c-.106,0-.212.106-.424,0a.455.455,0,0,1-.424-.424ZM69.944,60.935c.106-.212.106-.424.318-.529.106-.212.318-.318.424-.424a1.534,1.534,0,0,1,1.165-.106,2.316,2.316,0,0,1,.529.318l.424.424a1.43,1.43,0,0,1-.635,2.012A1.533,1.533,0,0,1,71,62.735c-.212-.106-.424-.106-.529-.318-.212-.106-.318-.318-.424-.424-.106-.212-.106-.318-.212-.529A.793.793,0,0,0,69.944,60.935Z" fill="#ced6e2"/>
    <g id="Group_6447" data-name="Group 6447">
      <path id="Path_6105" data-name="Path 6105" d="M139.19,88.358,118.649,99.475a1.425,1.425,0,0,1-1.906-.635l-10.27-20.011a1.424,1.424,0,0,1,.635-1.906L133.79,62.84a1.424,1.424,0,0,1,1.906.635l7.412,14.506Z" fill="#f2f6fa"/>
    </g>
    <path id="Path_6106" data-name="Path 6106" d="M143,78.193l-5.718,2.965a1.865,1.865,0,0,0-.741,2.224l2.541,5.082" fill="#d5dae6"/>
    <path id="Path_6107" data-name="Path 6107" d="M128.814,75.44c.318.106.529.318.847.424a2.219,2.219,0,0,1,.847.635,5.3,5.3,0,0,1,.741.847,3.779,3.779,0,0,1,.741,1.059,2.644,2.644,0,0,1,.424,1.482,6.93,6.93,0,0,1,0,1.482,6.477,6.477,0,0,1-.53,1.271,3.307,3.307,0,0,1-1.164.953,4.488,4.488,0,0,1-1.271.424,2.176,2.176,0,0,1-1.165,0,4.032,4.032,0,0,1-1.058-.318l-.847-.424c-.212-.106-.53-.212-.742-.318s-.529-.106-.635.106l-1.376.529-.741-1.588,1.376-.953a1.141,1.141,0,0,1,.847-.212,2.333,2.333,0,0,1,.847.106,4.6,4.6,0,0,1,.741.424,8.468,8.468,0,0,0,.953.424c.318.106.53.106.953.212a2.368,2.368,0,0,0,1.059-.318,1.338,1.338,0,0,0,.741-1.059c.106-.212,0-.424,0-.741a3.84,3.84,0,0,0-.318-.741,3.673,3.673,0,0,0-.529-.847,2.325,2.325,0,0,0-.529-.424c-.106-.106-.318-.212-.424-.318s-.212-.106-.318-.318a.484.484,0,0,1,0-.529Zm-9.847,7.306a.65.65,0,0,1,.635-.106c.212-.106.424,0,.53,0a1.211,1.211,0,0,1,.847.741,1.342,1.342,0,0,1,.106.635v.529a1.469,1.469,0,0,1-.742.847,1.341,1.341,0,0,1-.635.106h-.529a1.209,1.209,0,0,1-.847-.741,1.342,1.342,0,0,1-.106-.635c-.106-.212,0-.424,0-.529.106-.212.212-.318.212-.529C118.543,82.958,118.861,82.958,118.967,82.746Z" fill="#ced6e2"/>
    <path id="Path_6108" data-name="Path 6108" d="M117.167,76.393V93.969a4.2,4.2,0,0,1-4.129,4.129H54.909a4.2,4.2,0,0,1-4.129-4.129V74.911" fill="none" stroke="#1676ee" stroke-linecap="round" stroke-linejoin="round" stroke-width="3"/>
    <path id="Path_6109" data-name="Path 6109" d="M114.943,65.064H95.038a8.133,8.133,0,0,0-5.294,1.906L84.45,71.205a8.748,8.748,0,0,1-5.294,1.906H56.5a4.134,4.134,0,0,0-4.129,4.129,1.343,1.343,0,0,0,.106.635L56.6,99.581a4.3,4.3,0,0,0,4.129,3.6H109.12a4.119,4.119,0,0,0,4.129-3.494l5.824-29.859a4.078,4.078,0,0,0-3.494-4.659A1.347,1.347,0,0,0,114.943,65.064Z" fill="#fff"/>
    <g id="Group_6448" data-name="Group 6448">
      <path id="Path_6110" data-name="Path 6110" d="M120.449,61.146H96.732a10.217,10.217,0,0,0-6.247,2.223l-6.353,5.188a9.814,9.814,0,0,1-6.247,2.224H50.674A4.97,4.97,0,0,0,45.7,75.758a1.8,1.8,0,0,0,.106.741l4.976,26.365a5.11,5.11,0,0,0,4.976,4.341h57.7a5.1,5.1,0,0,0,4.977-4.235l6.882-36.106a5,5,0,0,0-4.129-5.718Z" fill="#fff"/>
    </g>
    <path id="Path_6111" data-name="Path 6111" d="M74.709,88.887a2.541,2.541,0,1,0-2.541-2.541A2.577,2.577,0,0,0,74.709,88.887Z" fill="#989fb0"/>
    <path id="Path_6112" data-name="Path 6112" d="M94.508,88.464a2.541,2.541,0,1,0-2.541-2.541A2.577,2.577,0,0,0,94.508,88.464Z" fill="#989fb0"/>
    <path id="Path_6113" data-name="Path 6113" d="M89.955,92.7H88.579a4.53,4.53,0,0,0-6.247-2.012A4.117,4.117,0,0,0,80.32,92.7H78.944A5.958,5.958,0,0,1,86.567,89.2,6.113,6.113,0,0,1,89.955,92.7Z" fill="#989fb0"/>
    <path id="Path_6114" data-name="Path 6114" d="M130.084,115.781c-1.164,0-.741.106-9.741-8.894a13.045,13.045,0,1,1,2.753-2.965l8.365,8.365A2,2,0,0,1,130.084,115.781Zm-17.47-28.058a8.894,8.894,0,0,0,0,17.788,8,8,0,0,0,1.588-.106,6.068,6.068,0,0,0,1.483-.424c.529-.211.952-.423,1.376-.635a6.788,6.788,0,0,0,1.376-1.059l1.059-1.059a8.735,8.735,0,0,0,.847-1.27c.212-.424.424-.953.636-1.483a4.262,4.262,0,0,0,.317-1.588c0-.424.106-.741.106-1.165A8.75,8.75,0,0,0,112.614,87.723Z" fill="#989fb0"/>
    <path id="Path_6115" data-name="Path 6115" d="M68.462,82.005l5.718-3.07" fill="none" stroke="#989fb0" stroke-miterlimit="10" stroke-width="1.5"/>
    <path id="Path_6116" data-name="Path 6116" d="M99.485,80.523l-5.718-3.176" fill="none" stroke="#989fb0" stroke-miterlimit="10" stroke-width="1.5"/>
  </g>
</svg>
