<svg xmlns="http://www.w3.org/2000/svg" xmlns:xlink="http://www.w3.org/1999/xlink" width="24" height="24" viewBox="0 0 24 24"><defs><clipPath id="a"><rect width="24" height="24" transform="translate(-19057 -16105)" fill="#fff" stroke="#707070" stroke-width="1"/></clipPath></defs><g transform="translate(19057 16105)" clip-path="url(#a)"><path d="M12,1.25A8.069,8.069,0,0,0,4.088,7.736L2.834,14.005a4.4,4.4,0,0,0,2.533,4.868,16.1,16.1,0,0,0,2.094.761l.1.233a4.853,4.853,0,0,0,8.87,0l.1-.233a16.1,16.1,0,0,0,2.094-.761,4.4,4.4,0,0,0,2.534-4.868L19.912,7.736A8.069,8.069,0,0,0,12,1.25Zm3.889,17.008a.751.751,0,0,0-.158.042,15,15,0,0,1-7.463,0,.75.75,0,0,0-.158-.042A14.61,14.61,0,0,1,5.977,17.5,2.9,2.9,0,0,1,4.3,14.3L5.559,8.031a6.569,6.569,0,0,1,12.883,0L19.7,14.3a2.9,2.9,0,0,1-1.672,3.2A14.6,14.6,0,0,1,15.889,18.258ZM9.449,20.073a16.529,16.529,0,0,0,5.1,0,3.354,3.354,0,0,1-5.1,0Z" transform="translate(-19056.75 -16105.25)" fill="#22272f" fill-rule="evenodd"/></g></svg>