<svg xmlns="http://www.w3.org/2000/svg" xmlns:xlink="http://www.w3.org/1999/xlink" width="36" height="36" viewBox="0 0 36 36"><defs><clipPath id="a"><rect width="36" height="36" fill="#fff" stroke="#707070" stroke-width="1"/></clipPath></defs><g clip-path="url(#a)"><path d="M4.757,10.98a12.1,12.1,0,0,1,23.736,0l1.881,9.4a6.6,6.6,0,0,1-3.8,7.3,24.155,24.155,0,0,1-3.141,1.142l-.156.35a7.28,7.28,0,0,1-13.305,0l-.156-.35a24.15,24.15,0,0,1-3.14-1.142,6.6,6.6,0,0,1-3.8-7.3ZM12.8,29.485a5.031,5.031,0,0,0,7.654,0A24.794,24.794,0,0,1,12.8,29.485Z" transform="translate(1.75 0.25)" fill="#22272f" fill-rule="evenodd"/></g></svg>