<svg xmlns="http://www.w3.org/2000/svg" xmlns:xlink="http://www.w3.org/1999/xlink" width="24" height="24" viewBox="0 0 24 24"><defs><clipPath id="a"><rect width="24" height="24" transform="translate(325 1132)" fill="#fff" stroke="#707070" stroke-width="1"/></clipPath></defs><g transform="translate(-325 -1132)" clip-path="url(#a)"><path d="M9.5,2.25H9.379a12.392,12.392,0,0,0-2.721.159A5.75,5.75,0,0,0,2.409,6.658,12.392,12.392,0,0,0,2.25,9.379v3.655c0,1.372,0,2.447.071,3.312a5.919,5.919,0,0,0,.556,2.265A5.75,5.75,0,0,0,5.39,21.123a5.919,5.919,0,0,0,2.265.556c.864.071,1.94.071,3.311.071h3.655a12.383,12.383,0,0,0,2.721-.159,5.75,5.75,0,0,0,4.249-4.249,12.383,12.383,0,0,0,.159-2.721V14a.75.75,0,0,0-1.5,0v.5a12.084,12.084,0,0,1-.117,2.492,4.25,4.25,0,0,1-3.14,3.14,12.084,12.084,0,0,1-2.492.117H11c-1.412,0-2.427,0-3.223-.066a4.465,4.465,0,0,1-1.707-.4A4.25,4.25,0,0,1,4.213,17.93a4.465,4.465,0,0,1-.4-1.707c-.065-.8-.066-1.81-.066-3.223V9.5a12.082,12.082,0,0,1,.117-2.492,4.25,4.25,0,0,1,3.14-3.14A12.082,12.082,0,0,1,9.5,3.75H10a.75.75,0,0,0,0-1.5ZM14.25,3a.75.75,0,0,0,.75.75h4.189l-7.72,7.72A.75.75,0,0,0,12.53,12.53l7.72-7.72V9a.75.75,0,0,0,1.5,0V3A.75.75,0,0,0,21,2.25H15A.75.75,0,0,0,14.25,3Z" transform="translate(324.75 1131.75)" fill="#22272f" fill-rule="evenodd"/></g></svg>