<svg xmlns="http://www.w3.org/2000/svg" xmlns:xlink="http://www.w3.org/1999/xlink" width="48" height="48" viewBox="0 0 48 48">
  <defs>
    <clipPath id="clip-path">
      <rect id="Rectangle_5315" data-name="Rectangle 5315" width="48" height="48" transform="translate(612 1318)" fill="#003f4b" stroke="#707070" stroke-width="1"/>
    </clipPath>
  </defs>
  <g id="Component_22_1" data-name="Component 22 – 1" transform="translate(48 48) rotate(180)">
    <g id="Mask_Group_285" data-name="Mask Group 285" transform="translate(-612 -1318)" clip-path="url(#clip-path)">
      <path id="Path_39" data-name="Path 39" d="M21.823,5.786a1.486,1.486,0,0,0-2.1-2.1L8.355,15.051l-.043.043c-.748.748-1.373,1.373-1.841,1.925A5.564,5.564,0,0,0,5.345,18.9a5.448,5.448,0,0,0,0,3.367,5.564,5.564,0,0,0,1.126,1.882c.469.552,1.093,1.176,1.841,1.925h0l.043.043L19.721,37.484a1.486,1.486,0,0,0,2.1-2.1L10.456,24.017c-.8-.8-1.339-1.341-1.72-1.789a2.7,2.7,0,0,1-.565-.877,2.477,2.477,0,0,1,0-1.531,2.7,2.7,0,0,1,.565-.877c.381-.448.918-.987,1.72-1.789Zm5.943,7.924a1.486,1.486,0,0,0-2.1-2.1l-5.943,5.943L17.74,19.534a1.486,1.486,0,0,0,0,2.1l1.981,1.981,5.943,5.943a1.486,1.486,0,1,0,2.1-2.1l-5.943-5.943-.93-.931.93-.931Z" transform="translate(618.809 1317.693)" fill="#003f4b" fill-rule="evenodd"/>
      <path id="Path_39_-_Outline" data-name="Path 39 - Outline" d="M20.772,2.25A2.486,2.486,0,0,1,22.53,6.494L11.164,17.86c-.831.831-1.318,1.321-1.665,1.729a2,2,0,0,0-.377.539,1.468,1.468,0,0,0,0,.913,2.005,2.005,0,0,0,.376.539c.362.427.909.973,1.665,1.729L22.53,34.676a2.486,2.486,0,1,1-3.515,3.515L7.6,26.781c-.752-.752-1.4-1.4-1.9-1.983a6.575,6.575,0,0,1-1.315-2.221,6.408,6.408,0,0,1,0-3.985,6.575,6.575,0,0,1,1.315-2.221c.495-.583,1.144-1.232,1.9-1.984l11.41-11.41A2.47,2.47,0,0,1,20.772,2.25Zm0,34.67a.486.486,0,0,0,.343-.829L9.749,24.724c-.79-.79-1.36-1.36-1.775-1.849a3.631,3.631,0,0,1-.754-1.215,3.456,3.456,0,0,1,0-2.149,3.631,3.631,0,0,1,.754-1.216c.416-.49.986-1.06,1.775-1.849L21.115,5.079a.486.486,0,1,0-.687-.687L9.02,15.8c-.722.722-1.344,1.344-1.786,1.865A4.575,4.575,0,0,0,6.3,19.21a4.42,4.42,0,0,0,0,2.749A4.575,4.575,0,0,0,7.233,23.5c.441.52,1.063,1.142,1.783,1.861L20.429,36.777A.484.484,0,0,0,20.772,36.92Zm5.943-26.745a2.486,2.486,0,0,1,1.758,4.244l-6.167,6.167,6.167,6.167a2.486,2.486,0,1,1-3.515,3.515l-7.924-7.924a2.489,2.489,0,0,1,0-3.515L24.958,10.9A2.47,2.47,0,0,1,26.715,10.174Zm0,18.821a.486.486,0,0,0,.343-.829l-7.581-7.581L27.059,13a.486.486,0,1,0-.687-.687l-7.924,7.925a.486.486,0,0,0,0,.687l7.924,7.924A.484.484,0,0,0,26.715,29Z" transform="translate(618.809 1317.693)" fill="#003f4b"/>
    </g>
  </g>
</svg>
