<svg xmlns="http://www.w3.org/2000/svg" xmlns:xlink="http://www.w3.org/1999/xlink" width="198" height="81" viewBox="0 0 198 81"><defs><clipPath id="a"><rect width="198" height="81" transform="translate(132 150)" fill="#fff" opacity="0.5"/></clipPath><radialGradient id="b" cx="0.964" cy="0.016" r="1.346" gradientTransform="matrix(-0.699, 0.715, -0.715, -0.699, 1.649, -0.662)" gradientUnits="objectBoundingBox"><stop offset="0" stop-color="#ffcf14"/><stop offset="0.519" stop-color="#ee8fff"/><stop offset="1" stop-color="#38deff"/></radialGradient></defs><g transform="translate(-132 -150)" clip-path="url(#a)"><g transform="translate(134.656 152.125)"><path d="M1.594,1.594V52.859H52.859V1.594H1.594M0,0H54.452V54.452H0Z" transform="translate(11.277 11.277)" fill="#fffcf9"/><rect width="54.452" height="54.452" transform="translate(38.504) rotate(45)" fill="url(#b)"/><path d="M9.744-67.043H23.7v-3.605H13.6v-5.546h8.319V-79.8H13.6v-5.515H23.7v-3.574H9.744Zm17.409,4.868h3.882v-8.134h.123a7.119,7.119,0,0,0,6.532,3.759c4.622,0,8.2-4.006,8.2-9s-3.574-9-8.2-9a7.134,7.134,0,0,0-6.625,3.913h-.123v-3.451h-3.79Zm9.521-8.011A5.1,5.1,0,0,1,31.5-75.547a5.1,5.1,0,0,1,5.176-5.361,5.132,5.132,0,0,1,5.238,5.361A5.132,5.132,0,0,1,36.674-70.186ZM50.693-86.824a2.236,2.236,0,0,0,2.218-2.249,2.209,2.209,0,0,0-2.218-2.218,2.236,2.236,0,0,0-2.249,2.218A2.262,2.262,0,0,0,50.693-86.824ZM48.752-67.074h3.882V-84.082H48.752Zm8.011.031h3.882V-74.13H67.7v7.087h3.852V-77.766h-4.5l4.006-6.378H66.87l-3.913,6.378H60.645V-88.981H56.763Zm26.067.462a9.054,9.054,0,0,0,9.059-8.966,8.975,8.975,0,0,0-9.059-8.966,8.975,8.975,0,0,0-9.059,8.966A9.054,9.054,0,0,0,82.83-66.581Zm0-3.636a5.111,5.111,0,0,1-5.176-5.33,5.04,5.04,0,0,1,5.176-5.33,5.071,5.071,0,0,1,5.238,5.33A5.142,5.142,0,0,1,82.83-70.217Z" transform="translate(73.449 100.101)" fill="#fffcf9"/><path d="M34.433-77.023H7.705v16.892h3.788V-73.449H19.16v13.318h3.788V-73.449h7.7v13.318h3.788Zm11.119,17.35a6.8,6.8,0,0,0,6.384-3.757h.122v3.3h3.727V-77.023H52.058v3.36h-.122a6.911,6.911,0,0,0-6.384-3.849c-4.8,0-8.339,3.971-8.339,8.92S40.756-59.673,45.552-59.673Zm.794-3.6a5.032,5.032,0,0,1-5.1-5.315,5.015,5.015,0,0,1,5.1-5.315,5.046,5.046,0,0,1,5.162,5.315A5.063,5.063,0,0,1,46.346-63.277Zm13.563,3.146h3.849V-73.449h6.323v-3.574H59.909Zm12.432,0H76.19v-7.026h7v7.026H87v-10.63h-4.46l3.971-6.323H82.36l-3.879,6.323H76.19V-81.88H72.341Zm26.056.458a9.059,9.059,0,0,0,8.767-6.231h-4.215a4.723,4.723,0,0,1-4.49,2.658A5.159,5.159,0,0,1,93.3-67.309H107.47a6.809,6.809,0,0,0,.122-1.222,8.942,8.942,0,0,0-9.194-8.95A8.918,8.918,0,0,0,89.2-68.653,9.043,9.043,0,0,0,98.4-59.673Zm-5.04-10.539c.275-2.138,2.291-3.7,4.979-3.7a4.823,4.823,0,0,1,5.01,3.7Zm17.656,10.08h6.415V-63.7h-2.6v-9.744h2.688v-3.574h-2.688v-4.765h-3.818v4.765h-2.6v3.574h2.6Z" transform="translate(74.946 122.939)" fill="#fffcf9"/><path d="M34.433-63.6H7.705V-46.7h3.788V-60.021H19.16V-46.7h3.788V-60.021h7.7V-46.7h3.788Z" transform="translate(93.653 59.573) rotate(-90)" fill="#fffcf9"/></g></g></svg>