<svg xmlns="http://www.w3.org/2000/svg" xmlns:xlink="http://www.w3.org/1999/xlink" width="227" height="86" viewBox="0 0 227 86">
  <defs>
    <radialGradient id="radial-gradient" cx="0.981" cy="0.028" r="3.165" gradientUnits="objectBoundingBox">
      <stop offset="0" stop-color="#ffcf14"/>
      <stop offset="0.519" stop-color="#ee8fff"/>
      <stop offset="1" stop-color="#38deff"/>
    </radialGradient>
    <filter id="Style_light_Size_small_State_hover_Icon_false_Background_" x="0" y="0" width="227" height="86" filterUnits="userSpaceOnUse">
      <feOffset dy="5" input="SourceAlpha"/>
      <feGaussianBlur stdDeviation="5" result="blur"/>
      <feFlood flood-color="#ee8fff" flood-opacity="0.251"/>
      <feComposite operator="in" in2="blur"/>
      <feComposite in="SourceGraphic"/>
    </filter>
    <clipPath id="clip-path">
      <rect id="Rectangle_5311" data-name="Rectangle 5311" width="24" height="24" transform="translate(-12713 -9955)" fill="#fff" stroke="#707070" stroke-width="1" opacity="0.5"/>
    </clipPath>
  </defs>
  <g id="Component_334_2" data-name="Component 334 – 2" transform="translate(15 10)">
    <g id="Group_6047" data-name="Group 6047">
      <g transform="matrix(1, 0, 0, 1, -15, -10)" filter="url(#Style_light_Size_small_State_hover_Icon_false_Background_)">
        <rect id="Style_light_Size_small_State_hover_Icon_false_Background_2" data-name="Style=light, Size=small, State=hover, Icon=false (Background)" width="197" height="56" transform="translate(15 10)" fill="url(#radial-gradient)"/>
      </g>
      <text id="label" transform="translate(44 34)" fill="#fffcf9" font-size="18" font-family="Dystopian-Bold, Dystopian" font-weight="700"><tspan x="0" y="0">Discover</tspan></text>
      <g id="Component_16_1" data-name="Component 16 – 1" transform="translate(129 14)">
        <g id="Mask_Group_266" data-name="Mask Group 266" transform="translate(12713 9955)" clip-path="url(#clip-path)">
          <path id="Path_24" data-name="Path 24" d="M9,4.75a.75.75,0,0,1,0-1.5H20a.75.75,0,0,1,.75.75V15a.75.75,0,0,1-1.5,0V5.811L4.53,20.53A.75.75,0,0,1,3.47,19.47L18.189,4.75Z" transform="translate(-12713 -9955)" fill="#fff"/>
        </g>
      </g>
    </g>
  </g>
</svg>
